HIERARCHY
ROOT Hips
{
	OFFSET -3.958830 18.904000 13.208200
	CHANNELS 6 Xposition Yposition Zposition Zrotation Yrotation Xrotation 
	JOINT LHipJoint
	{
		OFFSET 0.000000 0.000000 0.000000
		CHANNELS 3 Zrotation Yrotation Xrotation
		JOINT LeftUpLeg
		{
			OFFSET 1.800000 -1.400000 0.085000
			CHANNELS 3 Zrotation Yrotation Xrotation
			JOINT LeftLeg
			{
				OFFSET 2.215000 -6.000000 0.000000
				CHANNELS 3 Zrotation Yrotation Xrotation
				JOINT LeftFoot
				{
					OFFSET 2.500000 -6.900000 0.000000
					CHANNELS 3 Zrotation Yrotation Xrotation
					JOINT LeftToeBase
					{
						OFFSET 0.200000 -0.500000 1.950000
						CHANNELS 3 Zrotation Yrotation Xrotation
						End Site
						{
							OFFSET 0.000000 0.000000 0.000000
						}
					}
				}
			}
		}
	}
	JOINT RHipJoint
	{
		OFFSET 0.000000 0.000000 0.000000
		CHANNELS 3 Zrotation Yrotation Xrotation
		JOINT RightUpLeg
		{
			OFFSET -1.800000 -1.400000 0.085000
			CHANNELS 3 Zrotation Yrotation Xrotation
			JOINT RightLeg
			{
				OFFSET -2.215000 -6.000000 0.000000
				CHANNELS 3 Zrotation Yrotation Xrotation
				JOINT RightFoot
				{
					OFFSET -2.500000 -6.900000 0.000000
					CHANNELS 3 Zrotation Yrotation Xrotation
					JOINT RightToeBase
					{
						OFFSET -0.200000 -0.500000 1.950000
						CHANNELS 3 Zrotation Yrotation Xrotation
						End Site
						{
							OFFSET 0.000000 0.000000 0.000000
						}
					}
				}
			}
		}
	}
	JOINT LowerBack
	{
		OFFSET 0.000000 0.000000 0.000000
		CHANNELS 3 Zrotation Yrotation Xrotation
		JOINT Spine
		{
			OFFSET -0.087000 1.940000 -0.288900
			CHANNELS 3 Zrotation Yrotation Xrotation
			JOINT Spine1
			{
				OFFSET 0.000000 1.950000 0.060000
				CHANNELS 3 Zrotation Yrotation Xrotation
				JOINT Neck
				{
					OFFSET 0.000000 0.000000 0.000000
					CHANNELS 3 Zrotation Yrotation Xrotation
					JOINT Neck1
					{
						OFFSET 0.000000 1.600000 0.340000
						CHANNELS 3 Zrotation Yrotation Xrotation
						JOINT Head
						{
							OFFSET 0.000000 1.667000 -0.240000
							CHANNELS 3 Zrotation Yrotation Xrotation
							End Site
							{
								OFFSET 0.000000 0.000000 0.000000
							}
						}
					}
				}
				JOINT LeftShoulder
				{
					OFFSET 0.000000 0.000000 0.000000
					CHANNELS 3 Zrotation Yrotation Xrotation
					JOINT LeftArm
					{
						OFFSET 2.700000 1.550000 -0.730000
						CHANNELS 3 Zrotation Yrotation Xrotation
						JOINT LeftForeArm
						{
							OFFSET 5.450000 0.000000 0.000000
							CHANNELS 3 Zrotation Yrotation Xrotation
							JOINT LeftHand
							{
								OFFSET 3.450000 0.000000 0.000000
								CHANNELS 3 Zrotation Yrotation Xrotation
								JOINT LeftHandIndex1
								{
									OFFSET 0.750000 0.000000 0.000000
									CHANNELS 3 Zrotation Yrotation Xrotation
									End Site
									{
										OFFSET 0.000000 0.000000 0.000000
									}
								}
							}
						}
					}
				}
				JOINT RightShoulder
				{
					OFFSET 0.000000 0.000000 0.000000
					CHANNELS 3 Zrotation Yrotation Xrotation
					JOINT RightArm
					{
						OFFSET -2.700000 1.550000 -0.730000
						CHANNELS 3 Zrotation Yrotation Xrotation
						JOINT RightForeArm
						{
							OFFSET -5.450000 0.000000 0.000000
							CHANNELS 3 Zrotation Yrotation Xrotation
							JOINT RightHand
							{
								OFFSET -3.450000 0.000000 0.000000
								CHANNELS 3 Zrotation Yrotation Xrotation
								JOINT RightHandIndex1
								{
									OFFSET -0.750000 0.000000 0.000000
									CHANNELS 3 Zrotation Yrotation Xrotation
									End Site
									{
										OFFSET 0.000000 0.000000 0.000000
									}
								}
							}
						}
					}
				}
			}
		}
	}
}
MOTION
Frames: 8
Frame Time: 0.016667
-1.103940 16.229260 -5.248780 -3.325319 -20.767244 -15.237609 -15.112540 11.256287 4.331576 42.197593 0.679316 -17.051197 -12.625957 19.818998 44.227664 0.920923 10.963596 0.429452 0.856320 0.925350 0.711470 18.799596 -10.017660 2.317578 -30.610871 2.153662 -28.679491 5.374320 -12.816203 46.500722 -1.084962 -7.552046 1.394063 0.344030 -0.246160 0.212920 -4.792390 -0.034587 -8.241781 33.755827 -11.786435 29.625588 -5.256210 -9.363810 26.127557 4.215656 -2.062189 -14.074791 -9.716915 6.981512 82.152316 -6.496340 -1.763240 -10.113830 4.230406 -22.833368 8.719061 -50.795611 -26.967383 4.729363 -4.757936 -14.730647 -0.489873 -3.346949 2.931216 0.420130 -0.233360 0.541110 0.194910 -9.608656 21.301204 8.910460 59.165632 33.598607 -14.186753 -85.520837 49.777429 -61.415903 2.152748 -0.735785 0.265610 0.222350 -0.343560 0.043230 
-1.021380 16.247450 -5.284010 -2.296845 -19.657619 -15.425837 -15.163328 11.148088 4.477212 41.920609 0.384471 -17.270827 -15.648140 20.679228 42.793256 0.876100 11.238020 0.384198 0.742300 0.784860 0.617060 18.792306 -9.841714 2.256738 -32.304209 1.767826 -28.259951 5.780462 -12.908000 45.221197 -0.990261 -7.521526 1.435498 0.321490 -0.085820 0.187350 -4.707824 -0.320151 -8.289741 33.311856 -9.862686 29.958264 -0.196889 -8.215614 25.049461 1.403323 -1.943281 -13.507437 -10.621004 5.577434 82.208873 -4.466080 -0.615820 -7.310330 10.597340 -21.567575 8.649197 -52.739065 -31.292283 9.497097 -0.315771 -11.115690 -0.638801 -3.497828 2.850412 0.423230 -0.124440 0.427070 0.184650 -10.893733 20.503627 7.571819 56.882128 30.746810 -13.011500 -42.833037 39.184867 -23.287119 2.097944 -1.304508 0.143060 0.299720 -0.247260 0.013210 
-0.928490 16.250730 -5.317820 -1.252048 -17.014689 -16.350234 -15.107684 10.971200 4.575614 41.064055 -0.745737 -18.087348 -17.773828 21.096702 42.469631 0.967677 11.445452 0.411453 0.536820 0.550150 0.469150 18.853858 -9.978514 2.145276 -34.244699 0.300883 -26.817034 5.218624 -12.935016 44.296692 -0.867588 -7.580745 1.472733 0.202750 0.096090 0.164120 -4.825782 -0.118066 -8.342894 34.756447 -8.499637 30.152518 2.148971 -6.881223 24.656365 -0.423633 -1.080979 -13.017679 -9.020275 2.176287 77.845565 -3.901000 -0.337680 -2.527930 12.435842 -20.765949 8.091428 -45.958388 -33.524691 11.221557 2.251273 -9.705181 -0.538659 -3.690870 2.735444 0.325290 0.006520 0.275290 0.172990 -9.593047 19.177367 7.570067 56.862483 25.829303 -11.310919 -31.584008 33.542701 -15.088833 2.186231 -1.376894 0.062150 0.322990 -0.152720 0.032710 
-0.816880 16.270450 -5.351280 -0.556722 -14.657587 -16.098708 -15.076185 10.726950 4.795221 40.641071 -1.576597 -19.231710 -21.067034 21.566390 40.704217 1.024333 11.499179 0.412116 0.440280 0.444210 0.432260 18.904471 -10.040078 2.036840 -35.409198 -0.868543 -26.041464 4.392672 -12.581178 42.728437 -0.795696 -7.402428 1.550280 0.121200 0.116570 0.163150 -4.907415 0.076308 -8.447678 36.054823 -7.068511 29.928892 4.016446 -5.316049 24.056686 -1.940305 0.101543 -13.051511 -7.067939 -0.647912 74.746910 -4.748210 0.635310 -1.308850 14.188072 -19.317724 7.606355 -38.875322 -34.537982 11.564095 4.645587 -9.409735 -0.627804 -3.747256 2.668843 0.305380 0.041170 0.249990 0.142640 -8.898804 16.741895 7.781784 60.973204 20.957586 -14.168751 -28.869231 38.889927 -15.479083 2.160646 -1.324193 0.049760 0.298640 -0.116800 0.021930 
-0.735180 16.297150 -5.397510 -0.192054 -11.565093 -16.587494 -15.048528 10.608450 4.987797 40.187366 -2.460476 -20.390236 -23.113466 21.795423 40.153664 1.112350 11.502066 0.414992 0.451490 0.461220 0.558450 18.920509 -10.214311 1.840118 -35.939193 -1.844052 -24.043997 3.283250 -12.129516 41.738373 -0.840052 -7.205235 1.620340 0.066390 0.020220 0.186600 -4.899750 0.240608 -8.520370 37.161246 -5.698452 30.460810 5.130644 -3.914935 24.180920 -2.318920 1.933775 -13.462038 -3.599991 -4.430146 72.570881 -9.375080 2.298310 -3.299380 14.610868 -20.109195 7.571790 -25.041024 -32.949015 9.975700 2.684022 -8.985305 0.098695 -3.704927 2.545456 0.321490 0.005380 0.367320 0.137990 -8.944916 16.084791 8.561702 66.652092 16.962108 -19.163826 -34.597123 44.705105 -20.582829 2.151093 -1.235921 0.101030 0.296540 -0.172860 0.006700 
-0.669140 16.288180 -5.454520 0.402637 -9.372985 -16.869212 -15.103824 10.536460 5.224603 40.158675 -2.834961 -21.845525 -25.065859 22.354868 39.746776 1.215860 11.647581 0.396440 0.335020 0.324410 0.505600 18.881715 -10.154722 1.764444 -36.204485 -1.949052 -24.074682 1.899345 -11.954483 43.467968 -0.824219 -7.426685 1.567983 -0.029090 0.033180 0.221220 -4.728315 0.093935 -8.695691 34.740231 -3.514374 32.562915 8.597666 -2.276300 24.171264 -3.937060 4.103532 -13.567398 1.889464 -8.234647 66.391328 -11.887090 4.166560 -1.114920 18.176818 -18.792319 7.593745 -14.546604 -29.076022 7.386194 -0.682316 -14.393729 0.888210 -3.585922 2.669118 0.257720 0.076490 0.315410 0.100450 -9.854662 13.685262 8.372142 69.120231 15.607920 -21.002787 -37.929767 47.336287 -23.450470 2.154119 -1.253572 0.106150 0.195300 -0.140180 -0.007500 
-0.605770 16.276740 -5.531940 0.361335 -6.607670 -17.075747 -15.145740 10.396568 5.369949 39.865432 -3.244758 -24.246573 -25.345472 22.552419 40.529746 1.118331 11.898112 0.365703 0.119190 0.039810 0.356190 18.869883 -10.051497 1.803173 -36.735380 -1.704288 -23.918649 2.466382 -13.043086 46.580511 -0.792229 -8.091105 1.370366 -0.082670 0.174210 0.171900 -4.621915 0.070514 -8.857695 32.915594 -1.575444 34.911755 12.479348 -0.650227 24.087165 -6.427620 6.000515 -13.100715 6.745901 -10.887376 57.780747 -11.016040 4.758900 1.889460 23.581796 -16.061545 7.053450 -7.686200 -26.770446 7.206946 -0.022926 -13.912042 1.012495 -3.595588 2.751334 0.242260 0.204170 0.116810 0.024980 -10.798036 9.656307 7.334118 69.082602 14.808463 -20.716361 -37.824771 47.430704 -23.096992 2.102531 -1.274640 -0.075910 0.191190 -0.009950 -0.079220 
-0.562530 16.224310 -5.597210 0.757105 -3.738850 -17.541015 -15.197535 10.266033 5.452294 39.333780 -3.842172 -26.577852 -25.039001 23.107288 42.629816 1.055834 12.131373 0.257143 0.104420 -0.031730 0.351380 18.851761 -9.795450 2.033446 -38.308743 -1.446783 -24.483821 3.930711 -15.301338 51.780093 -0.994927 -9.093229 1.008670 -0.075110 0.133310 0.158060 -4.491009 -0.049942 -9.072858 29.967597 -0.096179 38.310628 13.654335 0.621131 23.055367 -7.918115 6.928233 -13.335827 9.877781 -11.626019 54.271315 -9.168600 4.895950 1.037280 25.049725 -13.720768 6.449737 4.108427 -17.138544 3.069752 -0.572622 -19.431135 1.321584 -3.331002 3.180977 0.329870 0.168890 0.083510 -0.031870 -9.578594 7.274163 6.467358 68.465659 14.708268 -19.917565 -34.482836 47.743001 -21.141618 2.082586 -1.296890 -0.141240 0.137850 0.028400 -0.152730 
